<mxfile host="65bd71144e">
    <diagram name="MAS Service Delivery Ecosystem" id="mas-service-delivery">
        <mxGraphModel dx="1574" dy="1198" grid="1" gridSize="10" guides="1" tooltips="1" connect="1" arrows="1" fold="1" page="1" pageScale="1" pageWidth="1654" pageHeight="1200" math="0" shadow="0">
            <root>
                <mxCell id="0"/>
                <mxCell id="1" parent="0"/>
                <mxCell id="title" value="MAS Service Delivery Ecosystem" style="text;html=1;strokeColor=none;fillColor=none;align=center;verticalAlign=middle;whiteSpace=wrap;rounded=0;fontSize=24;fontStyle=1;" parent="1" vertex="1">
                    <mxGeometry x="627" y="20" width="400" height="40" as="geometry"/>
                </mxCell>
                <mxCell id="public-prospect" value="Client Prospect" style="shape=actor;whiteSpace=wrap;html=1;fillColor=#e1d5e7;strokeColor=#9673a6;" parent="1" vertex="1">
                    <mxGeometry x="50" y="210" width="80" height="100" as="geometry"/>
                </mxCell>
                <mxCell id="donor" value="Donor" style="shape=actor;whiteSpace=wrap;html=1;fillColor=#E1D5E7;strokeColor=#82b366;" parent="1" vertex="1">
                    <mxGeometry x="1027" y="120" width="80" height="100" as="geometry"/>
                </mxCell>
                <mxCell id="signup-form" value="Email Signup&#xa;Form" style="rounded=1;whiteSpace=wrap;html=1;fillColor=#f8cecc;strokeColor=#b85450;" parent="1" vertex="1">
                    <mxGeometry x="230" y="170" width="120" height="60" as="geometry"/>
                </mxCell>
                <mxCell id="request-form" value="Request for&#xa;Assistance Form" style="rounded=1;whiteSpace=wrap;html=1;fillColor=#f8cecc;strokeColor=#b85450;" parent="1" vertex="1">
                    <mxGeometry x="230" y="290" width="120" height="60" as="geometry"/>
                </mxCell>
                <mxCell id="donation-form" value="Donation&#xa;Form" style="rounded=1;whiteSpace=wrap;html=1;fillColor=#FFE6CC;strokeColor=#b85450;" parent="1" vertex="1">
                    <mxGeometry x="1000" y="270" width="120" height="60" as="geometry"/>
                </mxCell>
                <mxCell id="civicrm-core" value="CiviCRM&#xa;Core System" style="rounded=1;whiteSpace=wrap;html=1;fillColor=#7F8AFF;strokeColor=#d79b00;fontSize=14;fontStyle=1;" parent="1" vertex="1">
                    <mxGeometry x="725" y="390" width="140" height="80" as="geometry"/>
                </mxCell>
                <mxCell id="formbuilder" value="FormBuilder&#xa;(RCS, SAS Forms)" style="rounded=1;whiteSpace=wrap;html=1;fillColor=#ffe6cc;strokeColor=#d79b00;" parent="1" vertex="1">
                    <mxGeometry x="490" y="270" width="140" height="60" as="geometry"/>
                </mxCell>
                <mxCell id="civirules" value="CiviRules&#xa;(Workflow Engine)" style="rounded=1;whiteSpace=wrap;html=1;fillColor=#7F8AFF;strokeColor=#d79b00;" parent="1" vertex="1">
                    <mxGeometry x="775" y="450" width="140" height="60" as="geometry"/>
                </mxCell>
                <mxCell id="workshop-reg" value="Workshop&#xa;Registration" style="rounded=1;whiteSpace=wrap;html=1;fillColor=#ffe6cc;strokeColor=#d79b00;" parent="1" vertex="1">
                    <mxGeometry x="230" y="400" width="120" height="60" as="geometry"/>
                </mxCell>
                <mxCell id="vc-prospect" value="VC&lt;div&gt;Prospect&lt;/div&gt;" style="shape=actor;whiteSpace=wrap;html=1;fillColor=#D5E8D4;strokeColor=#9673a6;" parent="1" vertex="1">
                    <mxGeometry x="70" y="650" width="80" height="100" as="geometry"/>
                </mxCell>
                <mxCell id="mas-vc" value="MAS VC" style="shape=actor;whiteSpace=wrap;html=1;fillColor=#d5e8d4;strokeColor=#82b366;" parent="1" vertex="1">
                    <mxGeometry x="747" y="660" width="80" height="100" as="geometry"/>
                </mxCell>
                <mxCell id="mas-coordinator" value="MAS&lt;div&gt;Admin&lt;/div&gt;" style="shape=actor;whiteSpace=wrap;html=1;fillColor=#fff2cc;strokeColor=#d6b656;" parent="1" vertex="1">
                    <mxGeometry x="460" y="660" width="80" height="100" as="geometry"/>
                </mxCell>
                <mxCell id="vc-application" value="VC Application&#xa;Form" style="rounded=1;whiteSpace=wrap;html=1;fillColor=#f8cecc;strokeColor=#b85450;" parent="1" vertex="1">
                    <mxGeometry x="290" y="650" width="120" height="60" as="geometry"/>
                </mxCell>
                <mxCell id="vc-menu" value="VC Menu" style="rounded=1;whiteSpace=wrap;html=1;fillColor=#ffe6cc;strokeColor=#d79b00;" parent="1" vertex="1">
                    <mxGeometry x="760" y="560" width="120" height="40" as="geometry"/>
                </mxCell>
                <mxCell id="admin-menu" value="Admin Menu" style="rounded=1;whiteSpace=wrap;html=1;fillColor=#ffe6cc;strokeColor=#d79b00;" parent="1" vertex="1">
                    <mxGeometry x="580" y="590" width="120" height="40" as="geometry"/>
                </mxCell>
                <mxCell id="ms365" value="Microsoft 365&#xa;(Collaboration)" style="rounded=1;whiteSpace=wrap;html=1;fillColor=#e1d5e7;strokeColor=#9673a6;" parent="1" vertex="1">
                    <mxGeometry x="940" y="620" width="120" height="40" as="geometry"/>
                </mxCell>
                <mxCell id="dashboard" value="Management&#xa;Dashboard" style="rounded=1;whiteSpace=wrap;html=1;fillColor=#ffe6cc;strokeColor=#d79b00;" parent="1" vertex="1">
                    <mxGeometry x="1050" y="420" width="120" height="60" as="geometry"/>
                </mxCell>
                <mxCell id="exec-director" value="Executive&#xa;Director" style="shape=actor;whiteSpace=wrap;html=1;fillColor=#f8cecc;strokeColor=#b85450;" parent="1" vertex="1">
                    <mxGeometry x="1270" y="330" width="80" height="100" as="geometry"/>
                </mxCell>
                <mxCell id="board-member" value="Board&#xa;Member" style="shape=actor;whiteSpace=wrap;html=1;fillColor=#F8CECC;strokeColor=#9673a6;" parent="1" vertex="1">
                    <mxGeometry x="1270" y="480" width="80" height="100" as="geometry"/>
                </mxCell>
                <mxCell id="user-arrow1" value="" style="endArrow=classic;html=1;rounded=0;exitX=1;exitY=0.5;entryX=0;entryY=0.5;entryDx=0;entryDy=0;" parent="1" source="public-prospect" target="signup-form" edge="1">
                    <mxGeometry width="50" height="50" relative="1" as="geometry"/>
                </mxCell>
                <mxCell id="user-arrow2" value="" style="endArrow=classic;html=1;rounded=0;exitX=1;exitY=0.75;entryX=0;entryY=0.5;exitDx=0;exitDy=0;" parent="1" source="public-prospect" target="request-form" edge="1">
                    <mxGeometry width="50" height="50" relative="1" as="geometry">
                        <mxPoint x="140" y="275" as="sourcePoint"/>
                    </mxGeometry>
                </mxCell>
                <mxCell id="user-arrow3" value="" style="endArrow=classic;html=1;rounded=0;exitX=0.425;exitY=1.02;entryX=0.5;entryY=0;exitDx=0;exitDy=0;exitPerimeter=0;entryDx=0;entryDy=0;" parent="1" source="donor" target="donation-form" edge="1">
                    <mxGeometry width="50" height="50" relative="1" as="geometry"/>
                </mxCell>
                <mxCell id="process1" value="Discovery" style="text;html=1;strokeColor=none;fillColor=none;align=center;verticalAlign=middle;whiteSpace=wrap;rounded=0;fontSize=16;fontStyle=3;color=#333333;" parent="1" vertex="1">
                    <mxGeometry x="180" y="90" width="100" height="30" as="geometry"/>
                </mxCell>
                <mxCell id="process2" value="Intake" style="text;html=1;strokeColor=none;fillColor=none;align=center;verticalAlign=middle;whiteSpace=wrap;rounded=0;fontSize=16;fontStyle=3;color=#333333;" parent="1" vertex="1">
                    <mxGeometry x="440" y="90" width="100" height="30" as="geometry"/>
                </mxCell>
                <mxCell id="process3" value="Service&#xa;Delivery" style="text;html=1;strokeColor=none;fillColor=none;align=center;verticalAlign=middle;whiteSpace=wrap;rounded=0;fontSize=16;fontStyle=3;color=#333333;" parent="1" vertex="1">
                    <mxGeometry x="777" y="90" width="100" height="30" as="geometry"/>
                </mxCell>
                <mxCell id="process4" value="Management&#xa;&amp; Oversight" style="text;html=1;strokeColor=none;fillColor=none;align=center;verticalAlign=middle;whiteSpace=wrap;rounded=0;fontSize=16;fontStyle=3;color=#333333;" parent="1" vertex="1">
                    <mxGeometry x="1260" y="100" width="100" height="30" as="geometry"/>
                </mxCell>
                <mxCell id="legend-bg" value="" style="rounded=1;whiteSpace=wrap;html=1;fillColor=#f5f5f5;strokeColor=#cccccc;" parent="1" vertex="1">
                    <mxGeometry x="80" y="967" width="600" height="130" as="geometry"/>
                </mxCell>
                <mxCell id="legend-title" value="Legend" style="text;html=1;strokeColor=none;fillColor=none;align=center;verticalAlign=middle;whiteSpace=wrap;rounded=0;fontSize=16;fontStyle=1;" parent="1" vertex="1">
                    <mxGeometry x="90" y="947" width="60" height="20" as="geometry"/>
                </mxCell>
                <mxCell id="legend-wp" value="WordPress Forms" style="rounded=1;whiteSpace=wrap;html=1;fillColor=#f8cecc;strokeColor=#b85450;" parent="1" vertex="1">
                    <mxGeometry x="90" y="977" width="100" height="30" as="geometry"/>
                </mxCell>
                <mxCell id="legend-ai" value="AI Assistants" style="ellipse;whiteSpace=wrap;html=1;fillColor=#dae8fc;strokeColor=#6c8ebf;" parent="1" vertex="1">
                    <mxGeometry x="330" y="977" width="100" height="30" as="geometry"/>
                </mxCell>
                <mxCell id="legend-civicrm" value="CiviCRM Forms" style="rounded=1;whiteSpace=wrap;html=1;fillColor=#ffe6cc;strokeColor=#d79b00;" parent="1" vertex="1">
                    <mxGeometry x="210" y="977" width="100" height="30" as="geometry"/>
                </mxCell>
                <mxCell id="legend-ms" value="Microsoft 365" style="rounded=1;whiteSpace=wrap;html=1;fillColor=#e1d5e7;strokeColor=#9673a6;" parent="1" vertex="1">
                    <mxGeometry x="570" y="977" width="100" height="30" as="geometry"/>
                </mxCell>
                <mxCell id="legend-external" value="Clients" style="shape=actor;whiteSpace=wrap;html=1;fillColor=#e1d5e7;strokeColor=#9673a6;" parent="1" vertex="1">
                    <mxGeometry x="90" y="1027" width="40" height="50" as="geometry"/>
                </mxCell>
                <mxCell id="legend-internal" value="VC&#39;s" style="shape=actor;whiteSpace=wrap;html=1;fillColor=#d5e8d4;strokeColor=#82b366;" parent="1" vertex="1">
                    <mxGeometry x="160" y="1027" width="40" height="50" as="geometry"/>
                </mxCell>
                <mxCell id="legend-staff" value="Staff/Admin" style="shape=actor;whiteSpace=wrap;html=1;fillColor=#fff2cc;strokeColor=#d6b656;" parent="1" vertex="1">
                    <mxGeometry x="230" y="1027" width="40" height="50" as="geometry"/>
                </mxCell>
                <mxCell id="legend-mgmt" value="Management" style="shape=actor;whiteSpace=wrap;html=1;fillColor=#f8cecc;strokeColor=#b85450;" parent="1" vertex="1">
                    <mxGeometry x="300" y="1027" width="40" height="50" as="geometry"/>
                </mxCell>
                <mxCell id="legend-note" value="AI Assistants provide intelligent support at each stage of the service delivery process,&amp;nbsp;from initial prospect engagement through project completion and organizational oversight." style="text;html=1;strokeColor=none;fillColor=none;align=left;verticalAlign=top;whiteSpace=wrap;rounded=0;fontSize=10;fontStyle=2;color=#666666;" parent="1" vertex="1">
                    <mxGeometry x="370" y="1027" width="300" height="50" as="geometry"/>
                </mxCell>
                <mxCell id="FMhdX4NjYqCOuvhVxrmr-3" value="" style="endArrow=classic;html=1;rounded=0;exitX=1;exitY=0.75;entryX=0;entryY=0.5;exitDx=0;exitDy=0;entryDx=0;entryDy=0;" parent="1" source="vc-prospect" target="vc-application" edge="1">
                    <mxGeometry width="50" height="50" relative="1" as="geometry">
                        <mxPoint x="180" y="530" as="sourcePoint"/>
                        <mxPoint x="270" y="555" as="targetPoint"/>
                    </mxGeometry>
                </mxCell>
                <mxCell id="FMhdX4NjYqCOuvhVxrmr-4" value="CiviCRM" style="rounded=1;whiteSpace=wrap;html=1;fillColor=#7F8AFF;strokeColor=#d79b00;" parent="1" vertex="1">
                    <mxGeometry x="450" y="977" width="100" height="30" as="geometry"/>
                </mxCell>
                <mxCell id="FMhdX4NjYqCOuvhVxrmr-6" value="MAS Coordinator" style="shape=actor;whiteSpace=wrap;html=1;fillColor=#fff2cc;strokeColor=#d6b656;" parent="1" vertex="1">
                    <mxGeometry x="350" y="490" width="80" height="100" as="geometry"/>
                </mxCell>
                <mxCell id="FMhdX4NjYqCOuvhVxrmr-7" value="Client" style="shape=actor;whiteSpace=wrap;html=1;fillColor=#e1d5e7;strokeColor=#9673a6;" parent="1" vertex="1">
                    <mxGeometry x="520" y="120" width="80" height="100" as="geometry"/>
                </mxCell>
                <mxCell id="FMhdX4NjYqCOuvhVxrmr-8" value="" style="endArrow=classic;html=1;rounded=0;exitX=1;exitY=0.5;entryX=-0.014;entryY=0.4;exitDx=0;exitDy=0;entryDx=0;entryDy=0;entryPerimeter=0;" parent="1" source="request-form" target="civicrm-core" edge="1">
                    <mxGeometry width="50" height="50" relative="1" as="geometry">
                        <mxPoint x="380" y="302.5" as="sourcePoint"/>
                        <mxPoint x="470" y="357.5" as="targetPoint"/>
                    </mxGeometry>
                </mxCell>
                <mxCell id="FMhdX4NjYqCOuvhVxrmr-9" value="" style="endArrow=classic;html=1;rounded=0;exitX=0.75;exitY=1;entryX=0.148;entryY=-0.012;exitDx=0;exitDy=0;entryDx=0;entryDy=0;entryPerimeter=0;" parent="1" source="formbuilder" target="civicrm-core" edge="1">
                    <mxGeometry width="50" height="50" relative="1" as="geometry">
                        <mxPoint x="760" y="400" as="sourcePoint"/>
                        <mxPoint x="1110" y="520" as="targetPoint"/>
                    </mxGeometry>
                </mxCell>
                <mxCell id="FMhdX4NjYqCOuvhVxrmr-10" value="" style="endArrow=classic;html=1;rounded=0;exitX=0.5;exitY=1;entryX=0.5;entryY=0;exitDx=0;exitDy=0;entryDx=0;entryDy=0;" parent="1" source="FMhdX4NjYqCOuvhVxrmr-7" target="formbuilder" edge="1">
                    <mxGeometry width="50" height="50" relative="1" as="geometry">
                        <mxPoint x="670" y="330" as="sourcePoint"/>
                        <mxPoint x="1020" y="450" as="targetPoint"/>
                    </mxGeometry>
                </mxCell>
                <mxCell id="FMhdX4NjYqCOuvhVxrmr-11" value="" style="endArrow=classic;html=1;rounded=0;exitX=1;exitY=0.5;entryX=0.171;entryY=1;exitDx=0;exitDy=0;entryDx=0;entryDy=0;entryPerimeter=0;" parent="1" source="vc-application" target="civicrm-core" edge="1">
                    <mxGeometry width="50" height="50" relative="1" as="geometry">
                        <mxPoint x="402" y="618" as="sourcePoint"/>
                        <mxPoint x="540" y="700" as="targetPoint"/>
                    </mxGeometry>
                </mxCell>
                <mxCell id="FMhdX4NjYqCOuvhVxrmr-14" value="" style="endArrow=classic;html=1;rounded=0;exitX=1;exitY=0.5;entryX=0;entryY=0.75;exitDx=0;exitDy=0;entryDx=0;entryDy=0;shape=link;" parent="1" source="coordinator-menu" target="civicrm-core" edge="1">
                    <mxGeometry width="50" height="50" relative="1" as="geometry">
                        <mxPoint x="346" y="560" as="sourcePoint"/>
                        <mxPoint x="535" y="370" as="targetPoint"/>
                    </mxGeometry>
                </mxCell>
                <mxCell id="FMhdX4NjYqCOuvhVxrmr-15" value="" style="endArrow=classic;html=1;rounded=0;exitX=1;exitY=0.5;entryX=0;entryY=0.75;exitDx=0;exitDy=0;entryDx=0;entryDy=0;shape=link;" parent="1" target="coordinator-menu" edge="1">
                    <mxGeometry width="50" height="50" relative="1" as="geometry">
                        <mxPoint x="426" y="550" as="sourcePoint"/>
                        <mxPoint x="615" y="450" as="targetPoint"/>
                    </mxGeometry>
                </mxCell>
                <mxCell id="coordinator-menu" value="Coordinator&#xa;Menu" style="rounded=1;whiteSpace=wrap;html=1;fillColor=#ffe6cc;strokeColor=#d79b00;" parent="1" vertex="1">
                    <mxGeometry x="500" y="460" width="120" height="40" as="geometry"/>
                </mxCell>
                <mxCell id="FMhdX4NjYqCOuvhVxrmr-16" value="" style="endArrow=classic;html=1;rounded=0;exitX=0.825;exitY=0.42;entryX=0.442;entryY=1.15;exitDx=0;exitDy=0;entryDx=0;entryDy=0;shape=link;exitPerimeter=0;entryPerimeter=0;" parent="1" source="mas-vc" target="vc-menu" edge="1">
                    <mxGeometry width="50" height="50" relative="1" as="geometry">
                        <mxPoint x="975" y="570" as="sourcePoint"/>
                        <mxPoint x="1010" y="520" as="targetPoint"/>
                    </mxGeometry>
                </mxCell>
                <mxCell id="FMhdX4NjYqCOuvhVxrmr-17" value="" style="endArrow=classic;html=1;rounded=0;exitX=0.75;exitY=0;entryX=0.567;entryY=0.972;exitDx=0;exitDy=0;entryDx=0;entryDy=0;shape=link;entryPerimeter=0;" parent="1" source="vc-menu" target="civirules" edge="1">
                    <mxGeometry width="50" height="50" relative="1" as="geometry">
                        <mxPoint x="790" y="630" as="sourcePoint"/>
                        <mxPoint x="825" y="580" as="targetPoint"/>
                    </mxGeometry>
                </mxCell>
                <mxCell id="FMhdX4NjYqCOuvhVxrmr-18" value="" style="endArrow=classic;html=1;rounded=0;entryX=0;entryY=0.75;entryDx=0;entryDy=0;exitX=0.983;exitY=0.803;exitDx=0;exitDy=0;exitPerimeter=0;" parent="1" source="mas-vc" target="ms365" edge="1">
                    <mxGeometry width="50" height="50" relative="1" as="geometry">
                        <mxPoint x="860" y="750" as="sourcePoint"/>
                        <mxPoint x="925" y="755" as="targetPoint"/>
                    </mxGeometry>
                </mxCell>
                <mxCell id="FMhdX4NjYqCOuvhVxrmr-19" value="" style="endArrow=classic;html=1;rounded=0;exitX=0.5;exitY=1;entryX=0.986;entryY=0.375;exitDx=0;exitDy=0;entryDx=0;entryDy=0;entryPerimeter=0;" parent="1" source="donation-form" target="civicrm-core" edge="1">
                    <mxGeometry width="50" height="50" relative="1" as="geometry">
                        <mxPoint x="994" y="330" as="sourcePoint"/>
                        <mxPoint x="950" y="378" as="targetPoint"/>
                    </mxGeometry>
                </mxCell>
                <mxCell id="FMhdX4NjYqCOuvhVxrmr-20" value="" style="endArrow=classic;html=1;rounded=0;exitX=0.971;exitY=0.703;entryX=0.25;entryY=1;exitDx=0;exitDy=0;entryDx=0;entryDy=0;shape=link;exitPerimeter=0;" parent="1" source="mas-coordinator" target="admin-menu" edge="1">
                    <mxGeometry width="50" height="50" relative="1" as="geometry">
                        <mxPoint x="556" y="730" as="sourcePoint"/>
                        <mxPoint x="630" y="670" as="targetPoint"/>
                    </mxGeometry>
                </mxCell>
                <mxCell id="FMhdX4NjYqCOuvhVxrmr-21" value="" style="endArrow=classic;html=1;rounded=0;exitX=0.75;exitY=0;exitDx=0;exitDy=0;shape=link;entryX=0.286;entryY=1.013;entryDx=0;entryDy=0;entryPerimeter=0;" parent="1" source="admin-menu" target="civicrm-core" edge="1">
                    <mxGeometry width="50" height="50" relative="1" as="geometry">
                        <mxPoint x="590" y="700" as="sourcePoint"/>
                        <mxPoint x="740" y="520" as="targetPoint"/>
                    </mxGeometry>
                </mxCell>
                <mxCell id="FMhdX4NjYqCOuvhVxrmr-22" value="" style="endArrow=classic;html=1;rounded=0;exitX=0.929;exitY=1.01;entryX=0;entryY=0.5;exitDx=0;exitDy=0;exitPerimeter=0;entryDx=0;entryDy=0;" parent="1" source="ai-service-explorer" target="workshop-reg" edge="1">
                    <mxGeometry width="50" height="50" relative="1" as="geometry">
                        <mxPoint x="98" y="370" as="sourcePoint"/>
                        <mxPoint x="200" y="402" as="targetPoint"/>
                    </mxGeometry>
                </mxCell>
                <mxCell id="FMhdX4NjYqCOuvhVxrmr-23" value="" style="endArrow=classic;html=1;rounded=0;exitX=1;exitY=0.5;entryX=0;entryY=0.5;exitDx=0;exitDy=0;entryDx=0;entryDy=0;" parent="1" source="workshop-reg" target="civicrm-core" edge="1">
                    <mxGeometry width="50" height="50" relative="1" as="geometry">
                        <mxPoint x="170" y="370" as="sourcePoint"/>
                        <mxPoint x="276" y="489" as="targetPoint"/>
                    </mxGeometry>
                </mxCell>
                <mxCell id="FMhdX4NjYqCOuvhVxrmr-25" value="" style="endArrow=classic;html=1;rounded=0;exitX=0.054;exitY=0.577;entryX=1;entryY=0.75;exitDx=0;exitDy=0;entryDx=0;entryDy=0;shape=link;exitPerimeter=0;" parent="1" source="board-member" target="dashboard" edge="1">
                    <mxGeometry width="50" height="50" relative="1" as="geometry">
                        <mxPoint x="1220" y="502" as="sourcePoint"/>
                        <mxPoint x="1224" y="450" as="targetPoint"/>
                    </mxGeometry>
                </mxCell>
                <mxCell id="FMhdX4NjYqCOuvhVxrmr-26" value="" style="endArrow=classic;html=1;rounded=0;exitX=-0.004;exitY=0.797;entryX=1;entryY=0.25;exitDx=0;exitDy=0;entryDx=0;entryDy=0;shape=link;exitPerimeter=0;" parent="1" source="exec-director" target="dashboard" edge="1">
                    <mxGeometry width="50" height="50" relative="1" as="geometry">
                        <mxPoint x="1334" y="473" as="sourcePoint"/>
                        <mxPoint x="1230" y="400" as="targetPoint"/>
                    </mxGeometry>
                </mxCell>
                <mxCell id="FMhdX4NjYqCOuvhVxrmr-27" value="" style="endArrow=classic;html=1;rounded=0;exitX=0;exitY=0.25;entryX=1;entryY=0.588;exitDx=0;exitDy=0;entryDx=0;entryDy=0;shape=link;entryPerimeter=0;" parent="1" source="dashboard" target="civicrm-core" edge="1">
                    <mxGeometry width="50" height="50" relative="1" as="geometry">
                        <mxPoint x="1010" y="410" as="sourcePoint"/>
                        <mxPoint x="910" y="435" as="targetPoint"/>
                    </mxGeometry>
                </mxCell>
                <mxCell id="ai-collateral" value="AI Collateral&#xa;Finder" style="ellipse;whiteSpace=wrap;html=1;fillColor=#dae8fc;strokeColor=#6c8ebf;" parent="1" vertex="1">
                    <mxGeometry x="795" y="740" width="100" height="60" as="geometry"/>
                </mxCell>
                <mxCell id="ai-vc-explorer" value="AI Volunteer&#xa;Explorer" style="ellipse;whiteSpace=wrap;html=1;fillColor=#dae8fc;strokeColor=#6c8ebf;" parent="1" vertex="1">
                    <mxGeometry x="110" y="730" width="100" height="60" as="geometry"/>
                </mxCell>
                <mxCell id="ai-wip-manager" value="AI WIP&#xa;Manager" style="ellipse;whiteSpace=wrap;html=1;fillColor=#dae8fc;strokeColor=#6c8ebf;" parent="1" vertex="1">
                    <mxGeometry x="390" y="560" width="100" height="60" as="geometry"/>
                </mxCell>
                <mxCell id="FMhdX4NjYqCOuvhVxrmr-28" value="" style="endArrow=classic;html=1;rounded=0;exitX=0.929;exitY=1.01;entryX=0;entryY=0.5;exitDx=0;exitDy=0;exitPerimeter=0;entryDx=0;entryDy=0;" parent="1" source="public-prospect" target="ai-service-explorer" edge="1">
                    <mxGeometry width="50" height="50" relative="1" as="geometry">
                        <mxPoint x="124" y="311" as="sourcePoint"/>
                        <mxPoint x="230" y="430" as="targetPoint"/>
                    </mxGeometry>
                </mxCell>
                <mxCell id="ai-service-explorer" value="AI Service&#xa;Explorer" style="ellipse;whiteSpace=wrap;html=1;fillColor=#dae8fc;strokeColor=#6c8ebf;" parent="1" vertex="1">
                    <mxGeometry x="80" y="280" width="100" height="60" as="geometry"/>
                </mxCell>
                <mxCell id="ai-implementor" value="AI Implementor" style="ellipse;whiteSpace=wrap;html=1;fillColor=#dae8fc;strokeColor=#6c8ebf;" parent="1" vertex="1">
                    <mxGeometry x="510" y="740" width="100" height="60" as="geometry"/>
                </mxCell>
                <mxCell id="ai-analyst" value="AI Analyst" style="ellipse;whiteSpace=wrap;html=1;fillColor=#dae8fc;strokeColor=#6c8ebf;" parent="1" vertex="1">
                    <mxGeometry x="980" y="450" width="100" height="60" as="geometry"/>
                </mxCell>
                <mxCell id="ai-tutor" value="AI Tutor" style="ellipse;whiteSpace=wrap;html=1;fillColor=#dae8fc;strokeColor=#6c8ebf;" parent="1" vertex="1">
                    <mxGeometry x="677" y="740" width="100" height="60" as="geometry"/>
                </mxCell>
                <mxCell id="69" value="" style="group" vertex="1" connectable="0" parent="1">
                    <mxGeometry x="1105" y="688" width="495" height="293" as="geometry"/>
                </mxCell>
                <mxCell id="23" value="Interfaces" style="text;strokeColor=none;fillColor=none;html=1;fontSize=24;fontStyle=1;verticalAlign=middle;align=left;" vertex="1" parent="69">
                    <mxGeometry width="100" height="40" as="geometry"/>
                </mxCell>
                <mxCell id="2" value="Assets" style="childLayout=tableLayout;recursiveResize=0;strokeColor=#98bf21;fillColor=#A7C942;shadow=1;" vertex="1" parent="69">
                    <mxGeometry x="2" y="30" width="493" height="443" as="geometry"/>
                </mxCell>
                <mxCell id="3" style="shape=tableRow;horizontal=0;startSize=0;swimlaneHead=0;swimlaneBody=0;top=0;left=0;bottom=0;right=0;dropTarget=0;collapsible=0;recursiveResize=0;expand=0;fontStyle=0;strokeColor=inherit;fillColor=#ffffff;" vertex="1" parent="2">
                    <mxGeometry width="493" height="23" as="geometry"/>
                </mxCell>
                <mxCell id="4" value="Actor" style="connectable=0;recursiveResize=0;strokeColor=inherit;fillColor=#A7C942;align=center;fontStyle=1;fontColor=#FFFFFF;html=1;" vertex="1" parent="3">
                    <mxGeometry width="103" height="23" as="geometry">
                        <mxRectangle width="103" height="23" as="alternateBounds"/>
                    </mxGeometry>
                </mxCell>
                <mxCell id="5" value="Tool" style="connectable=0;recursiveResize=0;strokeColor=inherit;fillColor=#A7C942;align=center;fontStyle=1;fontColor=#FFFFFF;html=1;" vertex="1" parent="3">
                    <mxGeometry x="103" width="90" height="23" as="geometry">
                        <mxRectangle width="90" height="23" as="alternateBounds"/>
                    </mxGeometry>
                </mxCell>
                <mxCell id="6" value="Type" style="connectable=0;recursiveResize=0;strokeColor=inherit;fillColor=#A7C942;align=center;fontStyle=1;fontColor=#FFFFFF;html=1;" vertex="1" parent="3">
                    <mxGeometry x="193" width="130" height="23" as="geometry">
                        <mxRectangle width="130" height="23" as="alternateBounds"/>
                    </mxGeometry>
                </mxCell>
                <mxCell id="24" value="Interface" style="connectable=0;recursiveResize=0;strokeColor=inherit;fillColor=#A7C942;align=center;fontStyle=1;fontColor=#FFFFFF;html=1;" vertex="1" parent="3">
                    <mxGeometry x="323" width="170" height="23" as="geometry">
                        <mxRectangle width="170" height="23" as="alternateBounds"/>
                    </mxGeometry>
                </mxCell>
                <mxCell id="7" value="" style="shape=tableRow;horizontal=0;startSize=0;swimlaneHead=0;swimlaneBody=0;top=0;left=0;bottom=0;right=0;dropTarget=0;collapsible=0;recursiveResize=0;expand=0;fontStyle=0;strokeColor=inherit;fillColor=default;" vertex="1" parent="2">
                    <mxGeometry y="23" width="493" height="20" as="geometry"/>
                </mxCell>
                <mxCell id="8" value="Client Prospect" style="connectable=0;recursiveResize=0;strokeColor=inherit;fillColor=inherit;align=center;whiteSpace=wrap;html=1;" vertex="1" parent="7">
                    <mxGeometry width="103" height="20" as="geometry">
                        <mxRectangle width="103" height="20" as="alternateBounds"/>
                    </mxGeometry>
                </mxCell>
                <mxCell id="9" value="Wordpress" style="connectable=0;recursiveResize=0;strokeColor=inherit;fillColor=inherit;align=center;whiteSpace=wrap;html=1;" vertex="1" parent="7">
                    <mxGeometry x="103" width="90" height="20" as="geometry">
                        <mxRectangle width="90" height="20" as="alternateBounds"/>
                    </mxGeometry>
                </mxCell>
                <mxCell id="10" value="Essential Form" style="connectable=0;recursiveResize=0;strokeColor=inherit;fillColor=inherit;align=center;whiteSpace=wrap;html=1;" vertex="1" parent="7">
                    <mxGeometry x="193" width="130" height="20" as="geometry">
                        <mxRectangle width="130" height="20" as="alternateBounds"/>
                    </mxGeometry>
                </mxCell>
                <mxCell id="25" value="Mailing List Signup" style="connectable=0;recursiveResize=0;strokeColor=inherit;fillColor=inherit;align=left;whiteSpace=wrap;html=1;" vertex="1" parent="7">
                    <mxGeometry x="323" width="170" height="20" as="geometry">
                        <mxRectangle width="170" height="20" as="alternateBounds"/>
                    </mxGeometry>
                </mxCell>
                <mxCell id="11" value="" style="shape=tableRow;horizontal=0;startSize=0;swimlaneHead=0;swimlaneBody=0;top=0;left=0;bottom=0;right=0;dropTarget=0;collapsible=0;recursiveResize=0;expand=0;fontStyle=1;strokeColor=inherit;fillColor=light-dark(#ffffff, #1d2409);" vertex="1" parent="2">
                    <mxGeometry y="43" width="493" height="20" as="geometry"/>
                </mxCell>
                <mxCell id="12" value="" style="connectable=0;recursiveResize=0;strokeColor=inherit;fillColor=inherit;whiteSpace=wrap;html=1;align=center;" vertex="1" parent="11">
                    <mxGeometry width="103" height="20" as="geometry">
                        <mxRectangle width="103" height="20" as="alternateBounds"/>
                    </mxGeometry>
                </mxCell>
                <mxCell id="13" value="Wordpress" style="connectable=0;recursiveResize=0;strokeColor=inherit;fillColor=inherit;whiteSpace=wrap;html=1;align=center;" vertex="1" parent="11">
                    <mxGeometry x="103" width="90" height="20" as="geometry">
                        <mxRectangle width="90" height="20" as="alternateBounds"/>
                    </mxGeometry>
                </mxCell>
                <mxCell id="14" value="Essential Form" style="connectable=0;recursiveResize=0;strokeColor=inherit;fillColor=inherit;whiteSpace=wrap;html=1;align=center;" vertex="1" parent="11">
                    <mxGeometry x="193" width="130" height="20" as="geometry">
                        <mxRectangle width="130" height="20" as="alternateBounds"/>
                    </mxGeometry>
                </mxCell>
                <mxCell id="26" value="Request for Assistance" style="connectable=0;recursiveResize=0;strokeColor=inherit;fillColor=inherit;whiteSpace=wrap;html=1;align=left;" vertex="1" parent="11">
                    <mxGeometry x="323" width="170" height="20" as="geometry">
                        <mxRectangle width="170" height="20" as="alternateBounds"/>
                    </mxGeometry>
                </mxCell>
                <mxCell id="15" value="" style="shape=tableRow;horizontal=0;startSize=0;swimlaneHead=0;swimlaneBody=0;top=0;left=0;bottom=0;right=0;dropTarget=0;collapsible=0;recursiveResize=0;expand=0;fontStyle=0;strokeColor=inherit;fillColor=#ffffff;" vertex="1" parent="2">
                    <mxGeometry y="63" width="493" height="20" as="geometry"/>
                </mxCell>
                <mxCell id="16" value="" style="connectable=0;recursiveResize=0;strokeColor=inherit;fillColor=inherit;fontStyle=0;align=center;whiteSpace=wrap;html=1;" vertex="1" parent="15">
                    <mxGeometry width="103" height="20" as="geometry">
                        <mxRectangle width="103" height="20" as="alternateBounds"/>
                    </mxGeometry>
                </mxCell>
                <mxCell id="17" value="AI" style="connectable=0;recursiveResize=0;strokeColor=inherit;fillColor=inherit;fontStyle=0;align=center;whiteSpace=wrap;html=1;" vertex="1" parent="15">
                    <mxGeometry x="103" width="90" height="20" as="geometry">
                        <mxRectangle width="90" height="20" as="alternateBounds"/>
                    </mxGeometry>
                </mxCell>
                <mxCell id="18" value="Web Chat" style="connectable=0;recursiveResize=0;strokeColor=inherit;fillColor=inherit;fontStyle=0;align=center;whiteSpace=wrap;html=1;" vertex="1" parent="15">
                    <mxGeometry x="193" width="130" height="20" as="geometry">
                        <mxRectangle width="130" height="20" as="alternateBounds"/>
                    </mxGeometry>
                </mxCell>
                <mxCell id="27" value="Service Explorer" style="connectable=0;recursiveResize=0;strokeColor=inherit;fillColor=inherit;fontStyle=0;align=left;whiteSpace=wrap;html=1;" vertex="1" parent="15">
                    <mxGeometry x="323" width="170" height="20" as="geometry">
                        <mxRectangle width="170" height="20" as="alternateBounds"/>
                    </mxGeometry>
                </mxCell>
                <mxCell id="19" value="" style="shape=tableRow;horizontal=0;startSize=0;swimlaneHead=0;swimlaneBody=0;top=0;left=0;bottom=0;right=0;dropTarget=0;collapsible=0;recursiveResize=0;expand=0;fontStyle=1;strokeColor=inherit;fillColor=light-dark(#ffffff, #1d2409);" vertex="1" parent="2">
                    <mxGeometry y="83" width="493" height="20" as="geometry"/>
                </mxCell>
                <mxCell id="20" value="" style="connectable=0;recursiveResize=0;strokeColor=inherit;fillColor=inherit;whiteSpace=wrap;html=1;align=center;" vertex="1" parent="19">
                    <mxGeometry width="103" height="20" as="geometry">
                        <mxRectangle width="103" height="20" as="alternateBounds"/>
                    </mxGeometry>
                </mxCell>
                <mxCell id="21" value="AI" style="connectable=0;recursiveResize=0;strokeColor=inherit;fillColor=inherit;whiteSpace=wrap;html=1;align=center;" vertex="1" parent="19">
                    <mxGeometry x="103" width="90" height="20" as="geometry">
                        <mxRectangle width="90" height="20" as="alternateBounds"/>
                    </mxGeometry>
                </mxCell>
                <mxCell id="22" value="Web Chat" style="connectable=0;recursiveResize=0;strokeColor=inherit;fillColor=inherit;whiteSpace=wrap;html=1;align=center;" vertex="1" parent="19">
                    <mxGeometry x="193" width="130" height="20" as="geometry">
                        <mxRectangle width="130" height="20" as="alternateBounds"/>
                    </mxGeometry>
                </mxCell>
                <mxCell id="28" value="AI Tutor" style="connectable=0;recursiveResize=0;strokeColor=inherit;fillColor=inherit;whiteSpace=wrap;html=1;align=left;" vertex="1" parent="19">
                    <mxGeometry x="323" width="170" height="20" as="geometry">
                        <mxRectangle width="170" height="20" as="alternateBounds"/>
                    </mxGeometry>
                </mxCell>
                <mxCell id="29" style="shape=tableRow;horizontal=0;startSize=0;swimlaneHead=0;swimlaneBody=0;top=0;left=0;bottom=0;right=0;dropTarget=0;collapsible=0;recursiveResize=0;expand=0;fontStyle=1;strokeColor=inherit;fillColor=light-dark(#ffffff, #1d2409);" vertex="1" parent="2">
                    <mxGeometry y="103" width="493" height="20" as="geometry"/>
                </mxCell>
                <mxCell id="30" value="VC Prospect" style="connectable=0;recursiveResize=0;strokeColor=inherit;fillColor=inherit;whiteSpace=wrap;html=1;align=center;" vertex="1" parent="29">
                    <mxGeometry width="103" height="20" as="geometry">
                        <mxRectangle width="103" height="20" as="alternateBounds"/>
                    </mxGeometry>
                </mxCell>
                <mxCell id="31" value="Wordpress" style="connectable=0;recursiveResize=0;strokeColor=inherit;fillColor=inherit;whiteSpace=wrap;html=1;align=center;" vertex="1" parent="29">
                    <mxGeometry x="103" width="90" height="20" as="geometry">
                        <mxRectangle width="90" height="20" as="alternateBounds"/>
                    </mxGeometry>
                </mxCell>
                <mxCell id="32" value="Essential Form" style="connectable=0;recursiveResize=0;strokeColor=inherit;fillColor=inherit;whiteSpace=wrap;html=1;align=center;" vertex="1" parent="29">
                    <mxGeometry x="193" width="130" height="20" as="geometry">
                        <mxRectangle width="130" height="20" as="alternateBounds"/>
                    </mxGeometry>
                </mxCell>
                <mxCell id="33" value="VC Application" style="connectable=0;recursiveResize=0;strokeColor=inherit;fillColor=inherit;whiteSpace=wrap;html=1;align=left;" vertex="1" parent="29">
                    <mxGeometry x="323" width="170" height="20" as="geometry">
                        <mxRectangle width="170" height="20" as="alternateBounds"/>
                    </mxGeometry>
                </mxCell>
                <mxCell id="34" style="shape=tableRow;horizontal=0;startSize=0;swimlaneHead=0;swimlaneBody=0;top=0;left=0;bottom=0;right=0;dropTarget=0;collapsible=0;recursiveResize=0;expand=0;fontStyle=1;strokeColor=inherit;fillColor=#FFFFFF;" vertex="1" parent="2">
                    <mxGeometry y="123" width="493" height="20" as="geometry"/>
                </mxCell>
                <mxCell id="35" style="connectable=0;recursiveResize=0;strokeColor=inherit;fillColor=inherit;whiteSpace=wrap;html=1;align=center;" vertex="1" parent="34">
                    <mxGeometry width="103" height="20" as="geometry">
                        <mxRectangle width="103" height="20" as="alternateBounds"/>
                    </mxGeometry>
                </mxCell>
                <mxCell id="36" value="Wordpress" style="connectable=0;recursiveResize=0;strokeColor=inherit;fillColor=inherit;whiteSpace=wrap;html=1;align=center;" vertex="1" parent="34">
                    <mxGeometry x="103" width="90" height="20" as="geometry">
                        <mxRectangle width="90" height="20" as="alternateBounds"/>
                    </mxGeometry>
                </mxCell>
                <mxCell id="37" value="Essential Form" style="connectable=0;recursiveResize=0;strokeColor=inherit;fillColor=inherit;whiteSpace=wrap;html=1;align=center;" vertex="1" parent="34">
                    <mxGeometry x="193" width="130" height="20" as="geometry">
                        <mxRectangle width="130" height="20" as="alternateBounds"/>
                    </mxGeometry>
                </mxCell>
                <mxCell id="38" value="Internal VC Application" style="connectable=0;recursiveResize=0;strokeColor=inherit;fillColor=inherit;whiteSpace=wrap;html=1;align=left;" vertex="1" parent="34">
                    <mxGeometry x="323" width="170" height="20" as="geometry">
                        <mxRectangle width="170" height="20" as="alternateBounds"/>
                    </mxGeometry>
                </mxCell>
                <mxCell id="39" style="shape=tableRow;horizontal=0;startSize=0;swimlaneHead=0;swimlaneBody=0;top=0;left=0;bottom=0;right=0;dropTarget=0;collapsible=0;recursiveResize=0;expand=0;fontStyle=1;strokeColor=inherit;fillColor=#FFFFFF;" vertex="1" parent="2">
                    <mxGeometry y="143" width="493" height="20" as="geometry"/>
                </mxCell>
                <mxCell id="40" style="connectable=0;recursiveResize=0;strokeColor=inherit;fillColor=inherit;whiteSpace=wrap;html=1;align=center;" vertex="1" parent="39">
                    <mxGeometry width="103" height="20" as="geometry">
                        <mxRectangle width="103" height="20" as="alternateBounds"/>
                    </mxGeometry>
                </mxCell>
                <mxCell id="41" value="AI" style="connectable=0;recursiveResize=0;strokeColor=inherit;fillColor=inherit;whiteSpace=wrap;html=1;align=center;" vertex="1" parent="39">
                    <mxGeometry x="103" width="90" height="20" as="geometry">
                        <mxRectangle width="90" height="20" as="alternateBounds"/>
                    </mxGeometry>
                </mxCell>
                <mxCell id="42" value="Web Chat" style="connectable=0;recursiveResize=0;strokeColor=inherit;fillColor=inherit;whiteSpace=wrap;html=1;align=center;" vertex="1" parent="39">
                    <mxGeometry x="193" width="130" height="20" as="geometry">
                        <mxRectangle width="130" height="20" as="alternateBounds"/>
                    </mxGeometry>
                </mxCell>
                <mxCell id="43" value="Volunteer Explorer" style="connectable=0;recursiveResize=0;strokeColor=inherit;fillColor=inherit;whiteSpace=wrap;html=1;align=left;" vertex="1" parent="39">
                    <mxGeometry x="323" width="170" height="20" as="geometry">
                        <mxRectangle width="170" height="20" as="alternateBounds"/>
                    </mxGeometry>
                </mxCell>
                <mxCell id="64" style="shape=tableRow;horizontal=0;startSize=0;swimlaneHead=0;swimlaneBody=0;top=0;left=0;bottom=0;right=0;dropTarget=0;collapsible=0;recursiveResize=0;expand=0;fontStyle=1;strokeColor=inherit;fillColor=#FFFFFF;" vertex="1" parent="2">
                    <mxGeometry y="163" width="493" height="20" as="geometry"/>
                </mxCell>
                <mxCell id="65" value="Client" style="connectable=0;recursiveResize=0;strokeColor=inherit;fillColor=inherit;whiteSpace=wrap;html=1;align=center;" vertex="1" parent="64">
                    <mxGeometry width="103" height="20" as="geometry">
                        <mxRectangle width="103" height="20" as="alternateBounds"/>
                    </mxGeometry>
                </mxCell>
                <mxCell id="66" value="CiviCRM" style="connectable=0;recursiveResize=0;strokeColor=inherit;fillColor=inherit;whiteSpace=wrap;html=1;align=center;" vertex="1" parent="64">
                    <mxGeometry x="103" width="90" height="20" as="geometry">
                        <mxRectangle width="90" height="20" as="alternateBounds"/>
                    </mxGeometry>
                </mxCell>
                <mxCell id="67" value="Formbuilder" style="connectable=0;recursiveResize=0;strokeColor=inherit;fillColor=inherit;whiteSpace=wrap;html=1;align=center;" vertex="1" parent="64">
                    <mxGeometry x="193" width="130" height="20" as="geometry">
                        <mxRectangle width="130" height="20" as="alternateBounds"/>
                    </mxGeometry>
                </mxCell>
                <mxCell id="68" value="RCS, SAS, Project Close" style="connectable=0;recursiveResize=0;strokeColor=inherit;fillColor=inherit;whiteSpace=wrap;html=1;align=left;" vertex="1" parent="64">
                    <mxGeometry x="323" width="170" height="20" as="geometry">
                        <mxRectangle width="170" height="20" as="alternateBounds"/>
                    </mxGeometry>
                </mxCell>
                <mxCell id="59" style="shape=tableRow;horizontal=0;startSize=0;swimlaneHead=0;swimlaneBody=0;top=0;left=0;bottom=0;right=0;dropTarget=0;collapsible=0;recursiveResize=0;expand=0;fontStyle=1;strokeColor=inherit;fillColor=#FFFFFF;" vertex="1" parent="2">
                    <mxGeometry y="183" width="493" height="20" as="geometry"/>
                </mxCell>
                <mxCell id="60" value="" style="connectable=0;recursiveResize=0;strokeColor=inherit;fillColor=inherit;whiteSpace=wrap;html=1;align=center;" vertex="1" parent="59">
                    <mxGeometry width="103" height="20" as="geometry">
                        <mxRectangle width="103" height="20" as="alternateBounds"/>
                    </mxGeometry>
                </mxCell>
                <mxCell id="61" value="CiviCRM" style="connectable=0;recursiveResize=0;strokeColor=inherit;fillColor=inherit;whiteSpace=wrap;html=1;align=center;" vertex="1" parent="59">
                    <mxGeometry x="103" width="90" height="20" as="geometry">
                        <mxRectangle width="90" height="20" as="alternateBounds"/>
                    </mxGeometry>
                </mxCell>
                <mxCell id="62" value="Workshop Registration" style="connectable=0;recursiveResize=0;strokeColor=inherit;fillColor=inherit;whiteSpace=wrap;html=1;align=center;" vertex="1" parent="59">
                    <mxGeometry x="193" width="130" height="20" as="geometry">
                        <mxRectangle width="130" height="20" as="alternateBounds"/>
                    </mxGeometry>
                </mxCell>
                <mxCell id="63" style="connectable=0;recursiveResize=0;strokeColor=inherit;fillColor=inherit;whiteSpace=wrap;html=1;align=left;" vertex="1" parent="59">
                    <mxGeometry x="323" width="170" height="20" as="geometry">
                        <mxRectangle width="170" height="20" as="alternateBounds"/>
                    </mxGeometry>
                </mxCell>
                <mxCell id="54" style="shape=tableRow;horizontal=0;startSize=0;swimlaneHead=0;swimlaneBody=0;top=0;left=0;bottom=0;right=0;dropTarget=0;collapsible=0;recursiveResize=0;expand=0;fontStyle=1;strokeColor=inherit;fillColor=#FFFFFF;" vertex="1" parent="2">
                    <mxGeometry y="203" width="493" height="20" as="geometry"/>
                </mxCell>
                <mxCell id="55" value="&lt;span style=&quot;white-space: pre;&quot;&gt;&#x9;&lt;/span&gt;" style="connectable=0;recursiveResize=0;strokeColor=inherit;fillColor=inherit;whiteSpace=wrap;html=1;align=center;" vertex="1" parent="54">
                    <mxGeometry width="103" height="20" as="geometry">
                        <mxRectangle width="103" height="20" as="alternateBounds"/>
                    </mxGeometry>
                </mxCell>
                <mxCell id="56" value="AI" style="connectable=0;recursiveResize=0;strokeColor=inherit;fillColor=inherit;whiteSpace=wrap;html=1;align=center;" vertex="1" parent="54">
                    <mxGeometry x="103" width="90" height="20" as="geometry">
                        <mxRectangle width="90" height="20" as="alternateBounds"/>
                    </mxGeometry>
                </mxCell>
                <mxCell id="57" value="TBD" style="connectable=0;recursiveResize=0;strokeColor=inherit;fillColor=inherit;whiteSpace=wrap;html=1;align=center;" vertex="1" parent="54">
                    <mxGeometry x="193" width="130" height="20" as="geometry">
                        <mxRectangle width="130" height="20" as="alternateBounds"/>
                    </mxGeometry>
                </mxCell>
                <mxCell id="58" style="connectable=0;recursiveResize=0;strokeColor=inherit;fillColor=inherit;whiteSpace=wrap;html=1;align=left;" vertex="1" parent="54">
                    <mxGeometry x="323" width="170" height="20" as="geometry">
                        <mxRectangle width="170" height="20" as="alternateBounds"/>
                    </mxGeometry>
                </mxCell>
                <mxCell id="49" style="shape=tableRow;horizontal=0;startSize=0;swimlaneHead=0;swimlaneBody=0;top=0;left=0;bottom=0;right=0;dropTarget=0;collapsible=0;recursiveResize=0;expand=0;fontStyle=1;strokeColor=inherit;fillColor=#FFFFFF;" vertex="1" parent="2">
                    <mxGeometry y="223" width="493" height="20" as="geometry"/>
                </mxCell>
                <mxCell id="50" value="MAS VC" style="connectable=0;recursiveResize=0;strokeColor=inherit;fillColor=inherit;whiteSpace=wrap;html=1;align=center;" vertex="1" parent="49">
                    <mxGeometry width="103" height="20" as="geometry">
                        <mxRectangle width="103" height="20" as="alternateBounds"/>
                    </mxGeometry>
                </mxCell>
                <mxCell id="51" value="CiviCRM" style="connectable=0;recursiveResize=0;strokeColor=inherit;fillColor=inherit;whiteSpace=wrap;html=1;align=center;" vertex="1" parent="49">
                    <mxGeometry x="103" width="90" height="20" as="geometry">
                        <mxRectangle width="90" height="20" as="alternateBounds"/>
                    </mxGeometry>
                </mxCell>
                <mxCell id="52" value="FormBuilder" style="connectable=0;recursiveResize=0;strokeColor=inherit;fillColor=inherit;whiteSpace=wrap;html=1;align=center;" vertex="1" parent="49">
                    <mxGeometry x="193" width="130" height="20" as="geometry">
                        <mxRectangle width="130" height="20" as="alternateBounds"/>
                    </mxGeometry>
                </mxCell>
                <mxCell id="53" value="Project Close" style="connectable=0;recursiveResize=0;strokeColor=inherit;fillColor=inherit;whiteSpace=wrap;html=1;align=left;" vertex="1" parent="49">
                    <mxGeometry x="323" width="170" height="20" as="geometry">
                        <mxRectangle width="170" height="20" as="alternateBounds"/>
                    </mxGeometry>
                </mxCell>
                <mxCell id="44" style="shape=tableRow;horizontal=0;startSize=0;swimlaneHead=0;swimlaneBody=0;top=0;left=0;bottom=0;right=0;dropTarget=0;collapsible=0;recursiveResize=0;expand=0;fontStyle=1;strokeColor=inherit;fillColor=#FFFFFF;" vertex="1" parent="2">
                    <mxGeometry y="243" width="493" height="20" as="geometry"/>
                </mxCell>
                <mxCell id="45" style="connectable=0;recursiveResize=0;strokeColor=inherit;fillColor=inherit;whiteSpace=wrap;html=1;align=center;" vertex="1" parent="44">
                    <mxGeometry width="103" height="20" as="geometry">
                        <mxRectangle width="103" height="20" as="alternateBounds"/>
                    </mxGeometry>
                </mxCell>
                <mxCell id="46" value="CiviCRM" style="connectable=0;recursiveResize=0;strokeColor=inherit;fillColor=inherit;whiteSpace=wrap;html=1;align=center;" vertex="1" parent="44">
                    <mxGeometry x="103" width="90" height="20" as="geometry">
                        <mxRectangle width="90" height="20" as="alternateBounds"/>
                    </mxGeometry>
                </mxCell>
                <mxCell id="47" value="VC Menu" style="connectable=0;recursiveResize=0;strokeColor=inherit;fillColor=inherit;whiteSpace=wrap;html=1;align=center;" vertex="1" parent="44">
                    <mxGeometry x="193" width="130" height="20" as="geometry">
                        <mxRectangle width="130" height="20" as="alternateBounds"/>
                    </mxGeometry>
                </mxCell>
                <mxCell id="48" value="View cases, contacts, etc" style="connectable=0;recursiveResize=0;strokeColor=inherit;fillColor=inherit;whiteSpace=wrap;html=1;align=left;" vertex="1" parent="44">
                    <mxGeometry x="323" width="170" height="20" as="geometry">
                        <mxRectangle width="170" height="20" as="alternateBounds"/>
                    </mxGeometry>
                </mxCell>
                <mxCell id="70" style="shape=tableRow;horizontal=0;startSize=0;swimlaneHead=0;swimlaneBody=0;top=0;left=0;bottom=0;right=0;dropTarget=0;collapsible=0;recursiveResize=0;expand=0;fontStyle=1;strokeColor=inherit;fillColor=#FFFFFF;" vertex="1" parent="2">
                    <mxGeometry y="263" width="493" height="20" as="geometry"/>
                </mxCell>
                <mxCell id="71" style="connectable=0;recursiveResize=0;strokeColor=inherit;fillColor=inherit;whiteSpace=wrap;html=1;align=center;" vertex="1" parent="70">
                    <mxGeometry width="103" height="20" as="geometry">
                        <mxRectangle width="103" height="20" as="alternateBounds"/>
                    </mxGeometry>
                </mxCell>
                <mxCell id="72" value="Microsoft" style="connectable=0;recursiveResize=0;strokeColor=inherit;fillColor=inherit;whiteSpace=wrap;html=1;align=center;" vertex="1" parent="70">
                    <mxGeometry x="103" width="90" height="20" as="geometry">
                        <mxRectangle width="90" height="20" as="alternateBounds"/>
                    </mxGeometry>
                </mxCell>
                <mxCell id="73" value="VC Intranet" style="connectable=0;recursiveResize=0;strokeColor=inherit;fillColor=inherit;whiteSpace=wrap;html=1;align=center;" vertex="1" parent="70">
                    <mxGeometry x="193" width="130" height="20" as="geometry">
                        <mxRectangle width="130" height="20" as="alternateBounds"/>
                    </mxGeometry>
                </mxCell>
                <mxCell id="74" value="Shared collateral, VC docs" style="connectable=0;recursiveResize=0;strokeColor=inherit;fillColor=inherit;whiteSpace=wrap;html=1;align=left;" vertex="1" parent="70">
                    <mxGeometry x="323" width="170" height="20" as="geometry">
                        <mxRectangle width="170" height="20" as="alternateBounds"/>
                    </mxGeometry>
                </mxCell>
                <mxCell id="101" style="shape=tableRow;horizontal=0;startSize=0;swimlaneHead=0;swimlaneBody=0;top=0;left=0;bottom=0;right=0;dropTarget=0;collapsible=0;recursiveResize=0;expand=0;fontStyle=1;strokeColor=inherit;fillColor=#FFFFFF;" vertex="1" parent="2">
                    <mxGeometry y="283" width="493" height="20" as="geometry"/>
                </mxCell>
                <mxCell id="102" style="connectable=0;recursiveResize=0;strokeColor=inherit;fillColor=inherit;whiteSpace=wrap;html=1;align=center;" vertex="1" parent="101">
                    <mxGeometry width="103" height="20" as="geometry">
                        <mxRectangle width="103" height="20" as="alternateBounds"/>
                    </mxGeometry>
                </mxCell>
                <mxCell id="103" value="AI" style="connectable=0;recursiveResize=0;strokeColor=inherit;fillColor=inherit;whiteSpace=wrap;html=1;align=center;" vertex="1" parent="101">
                    <mxGeometry x="103" width="90" height="20" as="geometry">
                        <mxRectangle width="90" height="20" as="alternateBounds"/>
                    </mxGeometry>
                </mxCell>
                <mxCell id="104" value="Intranet Chat" style="connectable=0;recursiveResize=0;strokeColor=inherit;fillColor=inherit;whiteSpace=wrap;html=1;align=center;" vertex="1" parent="101">
                    <mxGeometry x="193" width="130" height="20" as="geometry">
                        <mxRectangle width="130" height="20" as="alternateBounds"/>
                    </mxGeometry>
                </mxCell>
                <mxCell id="105" value="AI Advisor" style="connectable=0;recursiveResize=0;strokeColor=inherit;fillColor=inherit;whiteSpace=wrap;html=1;align=left;" vertex="1" parent="101">
                    <mxGeometry x="323" width="170" height="20" as="geometry">
                        <mxRectangle width="170" height="20" as="alternateBounds"/>
                    </mxGeometry>
                </mxCell>
                <mxCell id="96" style="shape=tableRow;horizontal=0;startSize=0;swimlaneHead=0;swimlaneBody=0;top=0;left=0;bottom=0;right=0;dropTarget=0;collapsible=0;recursiveResize=0;expand=0;fontStyle=1;strokeColor=inherit;fillColor=#FFFFFF;" vertex="1" parent="2">
                    <mxGeometry y="303" width="493" height="20" as="geometry"/>
                </mxCell>
                <mxCell id="97" style="connectable=0;recursiveResize=0;strokeColor=inherit;fillColor=inherit;whiteSpace=wrap;html=1;align=center;" vertex="1" parent="96">
                    <mxGeometry width="103" height="20" as="geometry">
                        <mxRectangle width="103" height="20" as="alternateBounds"/>
                    </mxGeometry>
                </mxCell>
                <mxCell id="98" value="AI" style="connectable=0;recursiveResize=0;strokeColor=inherit;fillColor=inherit;whiteSpace=wrap;html=1;align=center;" vertex="1" parent="96">
                    <mxGeometry x="103" width="90" height="20" as="geometry">
                        <mxRectangle width="90" height="20" as="alternateBounds"/>
                    </mxGeometry>
                </mxCell>
                <mxCell id="99" value="Intranet Chat" style="connectable=0;recursiveResize=0;strokeColor=inherit;fillColor=inherit;whiteSpace=wrap;html=1;align=center;" vertex="1" parent="96">
                    <mxGeometry x="193" width="130" height="20" as="geometry">
                        <mxRectangle width="130" height="20" as="alternateBounds"/>
                    </mxGeometry>
                </mxCell>
                <mxCell id="100" value="Collateral Finder" style="connectable=0;recursiveResize=0;strokeColor=inherit;fillColor=inherit;whiteSpace=wrap;html=1;align=left;" vertex="1" parent="96">
                    <mxGeometry x="323" width="170" height="20" as="geometry">
                        <mxRectangle width="170" height="20" as="alternateBounds"/>
                    </mxGeometry>
                </mxCell>
                <mxCell id="91" style="shape=tableRow;horizontal=0;startSize=0;swimlaneHead=0;swimlaneBody=0;top=0;left=0;bottom=0;right=0;dropTarget=0;collapsible=0;recursiveResize=0;expand=0;fontStyle=1;strokeColor=inherit;fillColor=#FFFFFF;" vertex="1" parent="2">
                    <mxGeometry y="323" width="493" height="20" as="geometry"/>
                </mxCell>
                <mxCell id="92" value="MAS Coordinator" style="connectable=0;recursiveResize=0;strokeColor=inherit;fillColor=inherit;whiteSpace=wrap;html=1;align=center;" vertex="1" parent="91">
                    <mxGeometry width="103" height="20" as="geometry">
                        <mxRectangle width="103" height="20" as="alternateBounds"/>
                    </mxGeometry>
                </mxCell>
                <mxCell id="93" value="CiviCRM" style="connectable=0;recursiveResize=0;strokeColor=inherit;fillColor=inherit;whiteSpace=wrap;html=1;align=center;" vertex="1" parent="91">
                    <mxGeometry x="103" width="90" height="20" as="geometry">
                        <mxRectangle width="90" height="20" as="alternateBounds"/>
                    </mxGeometry>
                </mxCell>
                <mxCell id="94" value="Coordinator Menu" style="connectable=0;recursiveResize=0;strokeColor=inherit;fillColor=inherit;whiteSpace=wrap;html=1;align=center;" vertex="1" parent="91">
                    <mxGeometry x="193" width="130" height="20" as="geometry">
                        <mxRectangle width="130" height="20" as="alternateBounds"/>
                    </mxGeometry>
                </mxCell>
                <mxCell id="95" value="Edit contacts, cases, mailings" style="connectable=0;recursiveResize=0;strokeColor=inherit;fillColor=inherit;whiteSpace=wrap;html=1;align=left;" vertex="1" parent="91">
                    <mxGeometry x="323" width="170" height="20" as="geometry">
                        <mxRectangle width="170" height="20" as="alternateBounds"/>
                    </mxGeometry>
                </mxCell>
                <mxCell id="86" style="shape=tableRow;horizontal=0;startSize=0;swimlaneHead=0;swimlaneBody=0;top=0;left=0;bottom=0;right=0;dropTarget=0;collapsible=0;recursiveResize=0;expand=0;fontStyle=1;strokeColor=inherit;fillColor=#FFFFFF;" vertex="1" parent="2">
                    <mxGeometry y="343" width="493" height="20" as="geometry"/>
                </mxCell>
                <mxCell id="87" style="connectable=0;recursiveResize=0;strokeColor=inherit;fillColor=inherit;whiteSpace=wrap;html=1;align=center;" vertex="1" parent="86">
                    <mxGeometry width="103" height="20" as="geometry">
                        <mxRectangle width="103" height="20" as="alternateBounds"/>
                    </mxGeometry>
                </mxCell>
                <mxCell id="88" value="CiviCRM" style="connectable=0;recursiveResize=0;strokeColor=inherit;fillColor=inherit;whiteSpace=wrap;html=1;align=center;" vertex="1" parent="86">
                    <mxGeometry x="103" width="90" height="20" as="geometry">
                        <mxRectangle width="90" height="20" as="alternateBounds"/>
                    </mxGeometry>
                </mxCell>
                <mxCell id="89" value="Dashboard" style="connectable=0;recursiveResize=0;strokeColor=inherit;fillColor=inherit;whiteSpace=wrap;html=1;align=center;" vertex="1" parent="86">
                    <mxGeometry x="193" width="130" height="20" as="geometry">
                        <mxRectangle width="130" height="20" as="alternateBounds"/>
                    </mxGeometry>
                </mxCell>
                <mxCell id="90" value="WIP, quarterly metrics" style="connectable=0;recursiveResize=0;strokeColor=inherit;fillColor=inherit;whiteSpace=wrap;html=1;align=left;" vertex="1" parent="86">
                    <mxGeometry x="323" width="170" height="20" as="geometry">
                        <mxRectangle width="170" height="20" as="alternateBounds"/>
                    </mxGeometry>
                </mxCell>
                <mxCell id="81" style="shape=tableRow;horizontal=0;startSize=0;swimlaneHead=0;swimlaneBody=0;top=0;left=0;bottom=0;right=0;dropTarget=0;collapsible=0;recursiveResize=0;expand=0;fontStyle=1;strokeColor=inherit;fillColor=#FFFFFF;" vertex="1" parent="2">
                    <mxGeometry y="363" width="493" height="20" as="geometry"/>
                </mxCell>
                <mxCell id="82" style="connectable=0;recursiveResize=0;strokeColor=inherit;fillColor=inherit;whiteSpace=wrap;html=1;align=center;" vertex="1" parent="81">
                    <mxGeometry width="103" height="20" as="geometry">
                        <mxRectangle width="103" height="20" as="alternateBounds"/>
                    </mxGeometry>
                </mxCell>
                <mxCell id="83" value="AI" style="connectable=0;recursiveResize=0;strokeColor=inherit;fillColor=inherit;whiteSpace=wrap;html=1;align=center;" vertex="1" parent="81">
                    <mxGeometry x="103" width="90" height="20" as="geometry">
                        <mxRectangle width="90" height="20" as="alternateBounds"/>
                    </mxGeometry>
                </mxCell>
                <mxCell id="84" value="Intranet Chat" style="connectable=0;recursiveResize=0;strokeColor=inherit;fillColor=inherit;whiteSpace=wrap;html=1;align=center;" vertex="1" parent="81">
                    <mxGeometry x="193" width="130" height="20" as="geometry">
                        <mxRectangle width="130" height="20" as="alternateBounds"/>
                    </mxGeometry>
                </mxCell>
                <mxCell id="85" value="AI Analyst" style="connectable=0;recursiveResize=0;strokeColor=inherit;fillColor=inherit;whiteSpace=wrap;html=1;align=left;" vertex="1" parent="81">
                    <mxGeometry x="323" width="170" height="20" as="geometry">
                        <mxRectangle width="170" height="20" as="alternateBounds"/>
                    </mxGeometry>
                </mxCell>
                <mxCell id="116" style="shape=tableRow;horizontal=0;startSize=0;swimlaneHead=0;swimlaneBody=0;top=0;left=0;bottom=0;right=0;dropTarget=0;collapsible=0;recursiveResize=0;expand=0;fontStyle=1;strokeColor=inherit;fillColor=#FFFFFF;" vertex="1" parent="2">
                    <mxGeometry y="383" width="493" height="20" as="geometry"/>
                </mxCell>
                <mxCell id="117" style="connectable=0;recursiveResize=0;strokeColor=inherit;fillColor=inherit;whiteSpace=wrap;html=1;align=center;" vertex="1" parent="116">
                    <mxGeometry width="103" height="20" as="geometry">
                        <mxRectangle width="103" height="20" as="alternateBounds"/>
                    </mxGeometry>
                </mxCell>
                <mxCell id="118" value="AI" style="connectable=0;recursiveResize=0;strokeColor=inherit;fillColor=inherit;whiteSpace=wrap;html=1;align=center;" vertex="1" parent="116">
                    <mxGeometry x="103" width="90" height="20" as="geometry">
                        <mxRectangle width="90" height="20" as="alternateBounds"/>
                    </mxGeometry>
                </mxCell>
                <mxCell id="119" value="Intranet Chat" style="connectable=0;recursiveResize=0;strokeColor=inherit;fillColor=inherit;whiteSpace=wrap;html=1;align=center;" vertex="1" parent="116">
                    <mxGeometry x="193" width="130" height="20" as="geometry">
                        <mxRectangle width="130" height="20" as="alternateBounds"/>
                    </mxGeometry>
                </mxCell>
                <mxCell id="120" value="Manage WIP" style="connectable=0;recursiveResize=0;strokeColor=inherit;fillColor=inherit;whiteSpace=wrap;html=1;align=left;" vertex="1" parent="116">
                    <mxGeometry x="323" width="170" height="20" as="geometry">
                        <mxRectangle width="170" height="20" as="alternateBounds"/>
                    </mxGeometry>
                </mxCell>
                <mxCell id="111" style="shape=tableRow;horizontal=0;startSize=0;swimlaneHead=0;swimlaneBody=0;top=0;left=0;bottom=0;right=0;dropTarget=0;collapsible=0;recursiveResize=0;expand=0;fontStyle=1;strokeColor=inherit;fillColor=#FFFFFF;" vertex="1" parent="2">
                    <mxGeometry y="403" width="493" height="20" as="geometry"/>
                </mxCell>
                <mxCell id="112" value="MAS Admin" style="connectable=0;recursiveResize=0;strokeColor=inherit;fillColor=inherit;whiteSpace=wrap;html=1;align=center;" vertex="1" parent="111">
                    <mxGeometry width="103" height="20" as="geometry">
                        <mxRectangle width="103" height="20" as="alternateBounds"/>
                    </mxGeometry>
                </mxCell>
                <mxCell id="113" value="CiviCRM" style="connectable=0;recursiveResize=0;strokeColor=inherit;fillColor=inherit;whiteSpace=wrap;html=1;align=center;" vertex="1" parent="111">
                    <mxGeometry x="103" width="90" height="20" as="geometry">
                        <mxRectangle width="90" height="20" as="alternateBounds"/>
                    </mxGeometry>
                </mxCell>
                <mxCell id="114" value="Admin Menu" style="connectable=0;recursiveResize=0;strokeColor=inherit;fillColor=inherit;whiteSpace=wrap;html=1;align=center;" vertex="1" parent="111">
                    <mxGeometry x="193" width="130" height="20" as="geometry">
                        <mxRectangle width="130" height="20" as="alternateBounds"/>
                    </mxGeometry>
                </mxCell>
                <mxCell id="115" value="Setups, configurations, etc" style="connectable=0;recursiveResize=0;strokeColor=inherit;fillColor=inherit;whiteSpace=wrap;html=1;align=left;" vertex="1" parent="111">
                    <mxGeometry x="323" width="170" height="20" as="geometry">
                        <mxRectangle width="170" height="20" as="alternateBounds"/>
                    </mxGeometry>
                </mxCell>
                <mxCell id="106" style="shape=tableRow;horizontal=0;startSize=0;swimlaneHead=0;swimlaneBody=0;top=0;left=0;bottom=0;right=0;dropTarget=0;collapsible=0;recursiveResize=0;expand=0;fontStyle=1;strokeColor=inherit;fillColor=#FFFFFF;" vertex="1" parent="2">
                    <mxGeometry y="423" width="493" height="20" as="geometry"/>
                </mxCell>
                <mxCell id="107" style="connectable=0;recursiveResize=0;strokeColor=inherit;fillColor=inherit;whiteSpace=wrap;html=1;align=center;" vertex="1" parent="106">
                    <mxGeometry width="103" height="20" as="geometry">
                        <mxRectangle width="103" height="20" as="alternateBounds"/>
                    </mxGeometry>
                </mxCell>
                <mxCell id="108" value="AI" style="connectable=0;recursiveResize=0;strokeColor=inherit;fillColor=inherit;whiteSpace=wrap;html=1;align=center;" vertex="1" parent="106">
                    <mxGeometry x="103" width="90" height="20" as="geometry">
                        <mxRectangle width="90" height="20" as="alternateBounds"/>
                    </mxGeometry>
                </mxCell>
                <mxCell id="109" value="Claude extensions" style="connectable=0;recursiveResize=0;strokeColor=inherit;fillColor=inherit;whiteSpace=wrap;html=1;align=center;" vertex="1" parent="106">
                    <mxGeometry x="193" width="130" height="20" as="geometry">
                        <mxRectangle width="130" height="20" as="alternateBounds"/>
                    </mxGeometry>
                </mxCell>
                <mxCell id="110" value="AI Implementor" style="connectable=0;recursiveResize=0;strokeColor=inherit;fillColor=inherit;whiteSpace=wrap;html=1;align=left;" vertex="1" parent="106">
                    <mxGeometry x="323" width="170" height="20" as="geometry">
                        <mxRectangle width="170" height="20" as="alternateBounds"/>
                    </mxGeometry>
                </mxCell>
            </root>
        </mxGraphModel>
    </diagram>
</mxfile>